<?xml version="1.0" encoding="utf-8"?>
<!-- Generator: Adobe Illustrator 22.0.1, SVG Export Plug-In . SVG Version: 6.00 Build 0)  -->
<svg version="1.1" id="" xmlns="http://www.w3.org/2000/svg" xmlns:xlink="http://www.w3.org/1999/xlink" x="0px" y="0px"
	 viewBox="0 0 630.4 630.8" style="enable-background:new 0 0 630.4 630.8;" xml:space="preserve">
	<path d="M558.7,233.2l-240.5-86.5L77.7,233.2l232.7,84.7v140.8l-201.9-72.6v-73.7H92.8v84.7l225.4,81l240.5-86.5l-217.7-79.2
		L558.7,233.2z M123.7,233.3l194.5-70l194.5,70l-194.5,70.8L123.7,233.3z M512.7,391.5L326,458.7V323.6L512.7,391.5z"/>
	<path d="M318.2,625.9c-83.7,0-162.4-32.6-221.7-91.8S4.7,396.1,4.7,312.4S37.3,150,96.6,90.8S234.5-1,318.2-1
		s162.4,32.6,221.7,91.8s91.8,137.9,91.8,221.7s-32.6,162.4-91.8,221.7S401.9,625.9,318.2,625.9z M318.2,15
		c-79.5,0-154.2,30.9-210.3,87.1S20.7,233,20.7,312.4c0,79.5,30.9,154.2,87.1,210.3c56.2,56.2,130.9,87.1,210.3,87.1
		c79.5,0,154.2-30.9,210.3-87.1c56.2-56.2,87.1-130.9,87.1-210.3c0-79.5-30.9-154.2-87.1-210.3C472.4,45.9,397.7,15,318.2,15z"/>
</svg>
